<svg xmlns="http://www.w3.org/2000/svg" width="135" height="41" viewBox="0 0 135 41" fill="none"><g clip-path="url(#clip0_12242_97738)"><path d="M134.058 35.8206C134.058 37.9371 132.343 39.6513 130.223 39.6513H4.73003C2.61063 39.6513 0.890381 37.9371 0.890381 35.8206V5.27176C0.890381 3.15636 2.61071 1.43604 4.73003 1.43604H130.222C132.343 1.43604 134.057 3.15636 134.057 5.27176L134.058 35.8206Z" fill="white"></path><path d="M130.223 40.543H4.7299C2.1224 40.543 0 38.4256 0 35.8211V5.27329C0 2.66679 2.1224 0.546387 4.7299 0.546387H130.222C132.826 0.546387 134.952 2.66679 134.952 5.27329V35.8211C134.954 38.4256 132.828 40.543 130.223 40.543Z" fill="#A6A6A6"></path><path d="M134.058 35.8206C134.058 37.9371 132.343 39.6513 130.223 39.6513H4.73003C2.61063 39.6513 0.890381 37.9371 0.890381 35.8206V5.27176C0.890381 3.15636 2.61071 1.43604 4.73003 1.43604H130.222C132.343 1.43604 134.057 3.15636 134.057 5.27176L134.058 35.8206Z" fill="black"></path><path d="M30.1334 20.3338C30.1044 17.1101 32.7729 15.5418 32.895 15.4688C31.3837 13.2654 29.0413 12.9643 28.2182 12.9403C26.2508 12.7333 24.3424 14.1176 23.3402 14.1176C22.318 14.1176 20.7748 12.9603 19.1114 12.9944C16.971 13.0274 14.9687 14.2666 13.8704 16.191C11.6041 20.1147 13.2943 25.8808 15.4658 29.0524C16.552 30.6067 17.8213 32.3401 19.4825 32.279C21.1078 32.213 21.7149 31.2438 23.6763 31.2438C25.6196 31.2438 26.1898 32.279 27.884 32.24C29.6284 32.213 30.7266 30.6797 31.7748 29.1124C33.0301 27.3331 33.5341 25.5788 33.5542 25.4887C33.5141 25.4747 30.1674 24.1965 30.1334 20.3338ZM26.9328 10.8539C27.8069 9.76073 28.4051 8.27345 28.2391 6.76416C26.9738 6.82017 25.3915 7.63933 24.4803 8.70853C23.6741 9.65071 22.954 11.195 23.14 12.6473C24.5614 12.7533 26.0207 11.9301 26.9328 10.8539Z" fill="white"></path><path d="M130.223 0.546387H63.0049L89.333 40.543H130.223C132.827 40.543 134.953 38.4256 134.953 35.8181V5.27329C134.954 2.66679 132.828 0.546387 130.223 0.546387Z" fill="url(#paint0_linear_12242_97738)"></path><path d="M53.6751 32.0562H51.4037L50.1595 28.1465H45.8346L44.6493 32.0562H42.438L46.7238 18.7457H49.3703L53.6751 32.0562ZM49.7845 26.5062L48.6593 23.0305C48.5402 22.6754 48.3162 21.8393 47.988 20.523H47.9481C47.8161 21.0891 47.6051 21.9253 47.316 23.0305L46.2098 26.5062H49.7845ZM64.6753 27.1393C64.6753 28.7716 64.2322 30.0618 63.345 31.0091C62.5509 31.8522 61.5637 32.2733 60.3864 32.2733C59.1152 32.2733 58.201 31.8202 57.6459 30.9121V35.948H55.5135V25.613C55.5135 24.5877 55.4866 23.5366 55.4345 22.4584H57.3099L57.4289 23.9797H57.4688C58.18 22.8335 59.2592 22.2603 60.7075 22.2603C61.8397 22.2603 62.7849 22.7074 63.541 23.6025C64.2962 24.4998 64.6753 25.678 64.6753 27.1393ZM62.5028 27.2173C62.5028 26.2831 62.2928 25.513 61.8707 24.9059C61.4096 24.2747 60.7905 23.9588 60.0143 23.9588C59.4882 23.9588 59.0101 24.1347 58.5831 24.4818C58.155 24.8318 57.8749 25.2889 57.744 25.855C57.678 26.1191 57.645 26.3341 57.645 26.5042V28.1055C57.645 28.8026 57.859 29.3918 58.2871 29.8739C58.7152 30.354 59.2713 30.5949 59.9554 30.5949C60.7586 30.5949 61.3838 30.284 61.8308 29.6668C62.2788 29.0476 62.5028 28.2315 62.5028 27.2173ZM75.7143 27.1393C75.7143 28.7716 75.2712 30.0618 74.3841 31.0091C73.5889 31.8522 72.6027 32.2733 71.4245 32.2733C70.1533 32.2733 69.2391 31.8202 68.684 30.9121V35.948H66.5516V25.613C66.5516 24.5877 66.5246 23.5366 66.4726 22.4584H68.3479L68.4669 23.9797H68.507C69.2171 22.8335 70.2963 22.2603 71.7455 22.2603C72.8767 22.2603 73.8219 22.7074 74.5801 23.6025C75.3343 24.4998 75.7143 25.678 75.7143 27.1393ZM73.5409 27.2173C73.5409 26.2831 73.33 25.513 72.9078 24.9059C72.4467 24.2747 71.8296 23.9588 71.0534 23.9588C70.5273 23.9588 70.0492 24.1347 69.6202 24.4818C69.1921 24.8318 68.9131 25.2889 68.782 25.855C68.717 26.1191 68.682 26.3341 68.682 26.5042V28.1055C68.682 28.8026 68.897 29.3918 69.3231 29.8739C69.7512 30.353 70.3073 30.5949 70.9934 30.5949C71.7975 30.5949 72.4226 30.284 72.8688 29.6668C73.3169 29.0476 73.5409 28.2315 73.5409 27.2173ZM88.0567 28.3225C88.0567 29.4557 87.6606 30.3769 86.8735 31.088C86.0073 31.8642 84.7981 32.2532 83.2478 32.2532C81.8155 32.2532 80.6673 31.9772 79.8011 31.4241L80.2942 29.6468C81.2294 30.2009 82.2566 30.4769 83.3748 30.4769C84.1789 30.4769 84.8041 30.2949 85.2501 29.9338C85.6971 29.5717 85.9233 29.0876 85.9233 28.4835C85.9233 27.9425 85.7362 27.4893 85.3692 27.1204C85.0001 26.7523 84.39 26.4092 83.5329 26.0942C81.2024 25.225 80.0361 23.9538 80.0361 22.2814C80.0361 21.1892 80.4482 20.2951 81.2705 19.5959C82.0926 18.8978 83.1828 18.5488 84.5391 18.5488C85.7503 18.5488 86.7595 18.7599 87.5607 19.1809L87.0256 20.9192C86.2714 20.5111 85.4202 20.3071 84.468 20.3071C83.7159 20.3071 83.1257 20.4921 82.7037 20.8602C82.3486 21.1892 82.1686 21.5904 82.1686 22.0664C82.1686 22.5916 82.3737 23.0277 82.7817 23.3697C83.1357 23.6847 83.7819 24.0279 84.716 24.3959C85.8623 24.858 86.7043 25.3961 87.2435 26.0142C87.7866 26.6322 88.0567 27.4033 88.0567 28.3225ZM95.1251 24.0587H92.7746V28.7186C92.7746 29.9038 93.1887 30.4949 94.0189 30.4949C94.3999 30.4949 94.716 30.4628 94.9661 30.3959L95.025 32.0152C94.605 32.1723 94.0518 32.2512 93.3667 32.2512C92.5245 32.2512 91.8664 31.9942 91.3913 31.4801C90.9182 30.966 90.6803 30.1048 90.6803 28.8926V24.0547H89.2799V22.4544H90.6803V20.6971L92.7746 20.0649V22.4544H95.1251V24.0587ZM105.709 27.1783C105.709 28.6535 105.287 29.8647 104.445 30.812C103.564 31.7872 102.391 32.2733 100.93 32.2733C99.5199 32.2733 98.3986 31.8062 97.5625 30.873C96.7263 29.9377 96.3082 28.7596 96.3082 27.3383C96.3082 25.851 96.7403 24.6328 97.6015 23.6856C98.4647 22.7375 99.627 22.2634 101.088 22.2634C102.496 22.2634 103.628 22.7315 104.484 23.6656C105.302 24.5718 105.709 25.742 105.709 27.1783ZM103.499 27.2273C103.499 26.348 103.309 25.5939 102.928 24.9628C102.48 24.2006 101.84 23.8197 101.011 23.8197C100.157 23.8197 99.5019 24.2006 99.0558 24.9628C98.6737 25.5939 98.4837 26.3611 98.4837 27.2672C98.4837 28.1475 98.6737 28.9035 99.0558 29.5327C99.5169 30.2949 100.16 30.676 100.993 30.676C101.808 30.676 102.447 30.2869 102.91 29.5137C103.302 28.8676 103.499 28.1085 103.499 27.2273ZM112.643 24.3338C112.432 24.2947 112.206 24.2747 111.971 24.2747C111.221 24.2747 110.641 24.5568 110.233 25.1248C109.879 25.6249 109.701 26.257 109.701 27.0202V32.0561H107.568V25.481C107.568 24.3758 107.547 23.3676 107.506 22.4594H109.364L109.442 24.2957H109.501C109.727 23.6646 110.081 23.1554 110.567 22.7744C111.042 22.4314 111.555 22.2603 112.108 22.2603C112.305 22.2603 112.483 22.2743 112.642 22.2994L112.643 24.3338ZM122.18 26.8032C122.18 27.1853 122.155 27.5073 122.102 27.7704H115.705C115.729 28.7186 116.039 29.4447 116.633 29.9448C117.172 30.391 117.869 30.6149 118.726 30.6149C119.673 30.6149 120.537 30.4649 121.314 30.1619L121.648 31.6411C120.74 32.0372 119.668 32.2342 118.43 32.2342C116.942 32.2342 115.774 31.7961 114.924 30.922C114.076 30.0468 113.651 28.8706 113.651 27.3973C113.651 25.951 114.046 24.7458 114.837 23.7847C115.665 22.7585 116.784 22.2453 118.192 22.2453C119.576 22.2453 120.623 22.7584 121.334 23.7847C121.897 24.5978 122.18 25.606 122.18 26.8032ZM120.147 26.2501C120.162 25.617 120.022 25.0719 119.733 24.6108C119.364 24.0167 118.796 23.7206 118.034 23.7206C117.337 23.7206 116.769 24.0097 116.337 24.5898C115.982 25.0509 115.771 25.605 115.706 26.2481L120.147 26.2501Z" fill="white"></path><path d="M48.7563 13.9819H47.639L47.0279 12.0605H44.9025L44.3194 13.9819H43.2322L45.3386 7.43965H46.6388L48.7563 13.9819ZM46.8439 11.2544L46.2908 9.54605C46.2327 9.37102 46.1257 8.96394 45.9607 8.31382H45.9407C45.8727 8.59487 45.7757 9.00295 45.6296 9.54605L45.0865 11.2544H46.8439ZM54.0232 9.265L52.2369 13.9819H51.2176L49.4894 9.265H50.6156L51.4217 11.7595C51.5578 12.1766 51.6738 12.5746 51.7608 12.9527H51.7898C51.8679 12.6136 51.9838 12.2156 52.1289 11.7595L52.925 9.265H54.0232ZM57.8259 13.9819L57.7479 13.4387H57.7188C57.3988 13.8758 56.9327 14.0888 56.3407 14.0888C55.4964 14.0888 54.8943 13.4967 54.8943 12.7006C54.8943 11.5363 55.9035 10.9342 57.6508 10.9342V10.8472C57.6508 10.2261 57.3208 9.91504 56.6706 9.91504C56.2045 9.91504 55.7965 10.0321 55.4384 10.2651L55.2253 9.57597C55.6624 9.30392 56.2056 9.1679 56.8466 9.1679C58.0788 9.1679 58.7009 9.81802 58.7009 11.1193V12.8566C58.7009 13.3327 58.7209 13.7018 58.769 13.9828L57.8259 13.9819ZM57.6799 11.6324C56.5148 11.6324 55.9326 11.9145 55.9326 12.5836C55.9326 13.0787 56.2336 13.3208 56.6507 13.3208C57.1847 13.3208 57.6799 12.9137 57.6799 12.3606V11.6324ZM61.0356 8.48785C60.6865 8.48785 60.4144 8.2158 60.4144 7.85673C60.4144 7.49766 60.6956 7.23561 61.0556 7.23561C61.4146 7.23561 61.7057 7.49766 61.6958 7.85673C61.6958 8.2358 61.4247 8.48785 61.0356 8.48785ZM61.5797 13.9819H60.5315V9.265H61.5797V13.9819ZM64.4902 13.9819H63.442V7.10059H64.4902V13.9819ZM68.9451 13.9819L68.867 13.4387H68.838C68.518 13.8758 68.0519 14.0888 67.4598 14.0888C66.6156 14.0888 66.0135 13.4967 66.0135 12.7006C66.0135 11.5363 67.0226 10.9342 68.7699 10.9342V10.8472C68.7699 10.2261 68.4399 9.91504 67.7897 9.91504C67.3237 9.91504 66.9156 10.0321 66.5575 10.2651L66.3436 9.57497C66.7806 9.30292 67.3237 9.1669 67.9649 9.1669C69.1971 9.1669 69.8191 9.81702 69.8191 11.1183V12.8556C69.8191 13.3317 69.8402 13.7008 69.8862 13.9818H68.9451V13.9819ZM68.799 11.6324C67.6338 11.6324 67.0517 11.9145 67.0517 12.5836C67.0517 13.0787 67.3527 13.3208 67.7697 13.3208C68.3038 13.3208 68.799 12.9137 68.799 12.3606V11.6324ZM74.0661 14.0889C73.397 14.0889 72.9028 13.8069 72.5827 13.2538H72.5617L72.5017 13.9819H71.6086C71.6376 13.6038 71.6476 13.1757 71.6476 12.7107V7.10059H72.6968V9.95513H72.7168C73.0277 9.43103 73.531 9.16898 74.2211 9.16898C75.3573 9.16898 76.1534 10.1402 76.1534 11.5564C76.1534 13.0207 75.2692 14.0889 74.0661 14.0889ZM73.853 9.99214C73.2499 9.99214 72.6978 10.5162 72.6978 11.2444V12.0695C72.6978 12.7197 73.1939 13.2538 73.8351 13.2538C74.6202 13.2538 75.0873 12.6136 75.0873 11.5944C75.0862 10.6433 74.6001 9.99214 73.853 9.99214ZM78.7509 13.9819H77.7038V7.10059H78.7509V13.9819ZM84.4571 11.8755H81.3105C81.3315 12.7687 81.9215 13.2728 82.7957 13.2728C83.2618 13.2728 83.6888 13.1947 84.0669 13.0497L84.2299 13.7779C83.7839 13.9719 83.2598 14.0689 82.6486 14.0689C81.1724 14.0689 80.2992 13.1367 80.2992 11.6915C80.2992 10.2452 81.1935 9.15798 82.5306 9.15798C83.7339 9.15798 84.492 10.0511 84.492 11.4004C84.496 11.5844 84.487 11.7495 84.4571 11.8755ZM83.4958 11.1284C83.4958 10.4002 83.1267 9.88612 82.4566 9.88612C81.8544 9.88612 81.3804 10.4102 81.3104 11.1284H83.4958ZM90.8102 14.0889C89.4319 14.0889 88.5388 13.0597 88.5388 11.6625C88.5388 10.2062 89.4509 9.16798 90.8892 9.16798C92.2464 9.16798 93.1606 10.1482 93.1606 11.5854C93.1607 13.0597 92.2185 14.0889 90.8102 14.0889ZM90.8502 9.93413C90.0931 9.93413 89.608 10.6423 89.608 11.6324C89.608 12.6036 90.1031 13.3118 90.8403 13.3118C91.5774 13.3118 92.0714 12.5546 92.0714 11.6124C92.0724 10.6523 91.5873 9.93413 90.8502 9.93413ZM98.7957 13.9819H97.7486V11.2734C97.7486 10.4392 97.4284 10.0211 96.7974 10.0211C96.1763 10.0211 95.7482 10.5552 95.7482 11.1764V13.9819H94.701V10.6133C94.701 10.1962 94.69 9.74909 94.662 9.264H95.5842L95.6332 9.99214H95.6622C95.9422 9.48804 96.5164 9.16698 97.1565 9.16698C98.1457 9.16698 98.7958 9.92412 98.7958 11.1564V13.9819H98.7957ZM105.654 10.0511H104.501V12.3416C104.501 12.9247 104.704 13.2157 105.111 13.2157C105.296 13.2157 105.452 13.1957 105.577 13.1667L105.606 13.9629C105.402 14.041 105.129 14.0799 104.792 14.0799C103.966 14.0799 103.473 13.6238 103.473 12.4296V10.0511H102.784V9.265H103.473V8.40083L104.501 8.08977V9.264H105.654V10.0511ZM111.205 13.9819H110.156V11.2934C110.156 10.4492 109.836 10.0221 109.205 10.0221C108.662 10.0221 108.158 10.3912 108.158 11.1384V13.9819H107.108V7.10059H108.158V9.93413H108.178C108.508 9.42003 108.984 9.16698 109.595 9.16698C110.594 9.16698 111.205 9.94313 111.205 11.1764V13.9819ZM116.561 11.8755H113.416C113.436 12.7687 114.026 13.2728 114.9 13.2728C115.367 13.2728 115.793 13.1947 116.171 13.0497L116.335 13.7779C115.889 13.9719 115.364 14.0689 114.753 14.0689C113.277 14.0689 112.403 13.1367 112.403 11.6915C112.403 10.2452 113.298 9.15798 114.635 9.15798C115.838 9.15798 116.596 10.0511 116.596 11.4004C116.6 11.5844 116.59 11.7495 116.561 11.8755ZM115.6 11.1284C115.6 10.4002 115.232 9.88612 114.562 9.88612C113.959 9.88612 113.484 10.4102 113.415 11.1284H115.6Z" fill="white"></path></g><defs><linearGradient id="paint0_linear_12242_97738" x1="98.9795" y1="40.6517" x2="98.9795" y2="4.59882" gradientUnits="userSpaceOnUse"><stop stop-color="#1A1A1A" stop-opacity="0.1"></stop><stop offset="0.123" stop-color="#212121" stop-opacity="0.151"></stop><stop offset="0.308" stop-color="#353535" stop-opacity="0.227"></stop><stop offset="0.532" stop-color="#575757" stop-opacity="0.318"></stop><stop offset="0.783" stop-color="#858585" stop-opacity="0.421"></stop><stop offset="1" stop-color="#B3B3B3" stop-opacity="0.51"></stop></linearGradient><clipPath id="clip0_12242_97738"><rect width="134.953" height="40" fill="white" transform="translate(0 0.544434)"></rect></clipPath></defs></svg>