<svg xmlns="http://www.w3.org/2000/svg" width="56" height="56" viewBox="0 0 56 56" fill="none"><rect width="56" height="56" rx="28" fill="white"></rect><path d="M17.6519 32.5C17.6519 32.5 35.8935 14.2034 37.0735 13.025C38.3819 11.715 42.6035 10.7284 44.7035 10.305C44.8382 10.2779 44.9776 10.2844 45.1091 10.3241C45.2407 10.3638 45.3604 10.4355 45.4576 10.5327C45.5547 10.6298 45.6264 10.7495 45.6661 10.8811C45.7058 11.0126 45.7124 11.152 45.6852 11.2867C45.2619 13.3867 44.2752 17.6067 42.9652 18.9167L23.5185 38.3617L17.6519 32.5Z" fill="#B3CDFF" stroke="black" stroke-linecap="round" stroke-linejoin="round"></path><path d="M20.002 30.1235L25.8786 36.0052" stroke="black" stroke-linecap="round" stroke-linejoin="round"></path><path d="M32.3586 29.5251C32.4346 32.0943 32.2374 34.6643 31.7703 37.1918C31.213 38.5086 30.4124 39.7085 29.4103 40.7285L25.2153 44.9168C25.0929 45.0398 24.9353 45.1216 24.7642 45.1507C24.5932 45.1798 24.4174 45.1549 24.2612 45.0793C24.1051 45.0037 23.9764 44.8812 23.8932 44.729C23.81 44.5768 23.7763 44.4024 23.7969 44.2301L24.6119 37.2701" stroke="black" stroke-linecap="round" stroke-linejoin="round"></path><path d="M26.4647 23.6318C23.8835 23.5364 21.2995 23.7157 18.7563 24.1668C17.4528 24.7429 16.2699 25.56 15.2697 26.5751L11.0863 30.7568C10.9634 30.8795 10.8819 31.0375 10.8533 31.2088C10.8246 31.3801 10.8501 31.5561 10.9263 31.7121C11.0025 31.8682 11.1255 31.9965 11.2782 32.0793C11.4309 32.162 11.6057 32.1949 11.778 32.1735L18.778 31.3168" stroke="black" stroke-linecap="round" stroke-linejoin="round"></path><path d="M19.9838 38.3617C21.1638 39.54 20.6721 41.21 19.3955 42.4884C18.2005 43.6817 13.6705 45.0434 11.3521 45.68C11.2117 45.7168 11.0641 45.7163 10.924 45.6785C10.7839 45.6407 10.656 45.567 10.5531 45.4646C10.4503 45.3622 10.3759 45.2347 10.3374 45.0948C10.299 44.9548 10.2977 44.8073 10.3338 44.6667C10.9638 42.3417 12.3121 37.7983 13.5005 36.6017C14.7955 35.3083 16.4488 34.835 17.6271 36.0134" stroke="black" stroke-linecap="round" stroke-linejoin="round"></path></svg>