<svg xmlns="http://www.w3.org/2000/svg" width="137" height="43" viewBox="0 0 137 43" fill="none"><path d="M6.00184 42.0444H130.998C134.029 42.0444 136.5 39.5659 136.5 36.5444V6.54443C136.5 3.51235 134.028 1.04443 130.998 1.04443H6.00184C2.96914 1.04443 0.5 3.51251 0.5 6.54443V36.5444C0.5 39.5657 2.96849 42.0444 6.00184 42.0444Z" fill="black" stroke="#A6A6A6"></path><path d="M72.434 14.0108C71.5287 14.0108 70.7656 13.6941 70.1621 13.0706C69.5636 12.4646 69.2295 11.6292 69.2444 10.7764C69.2444 9.86613 69.5537 9.09556 70.1621 8.48458C70.7631 7.86114 71.5262 7.54443 72.4315 7.54443C73.3267 7.54443 74.0898 7.86114 74.7033 8.48458C75.3118 9.11551 75.621 9.88608 75.621 10.7764C75.611 11.6891 75.3018 12.4596 74.7033 13.0681C74.1023 13.6966 73.3392 14.0108 72.434 14.0108ZM45.4988 14.0108C44.6135 14.0108 43.8454 13.699 43.217 13.0831C42.5936 12.4696 42.2769 11.6941 42.2769 10.7788C42.2769 9.86364 42.5936 9.08807 43.217 8.47461C43.833 7.85865 44.601 7.54693 45.4988 7.54693C45.9377 7.54693 46.3641 7.63421 46.7731 7.81127C47.1746 7.98334 47.5013 8.21775 47.7432 8.50453L47.803 8.57685L47.1272 9.24019L47.0574 9.1579C46.6759 8.70403 46.1646 8.48209 45.4888 8.48209C44.8853 8.48209 44.3591 8.69655 43.9252 9.12049C43.4888 9.54693 43.2669 10.1055 43.2669 10.7813C43.2669 11.4572 43.4888 12.0158 43.9252 12.4422C44.3591 12.8661 44.8853 13.0806 45.4888 13.0806C46.1322 13.0806 46.6734 12.8661 47.0948 12.4422C47.3442 12.1928 47.4988 11.8437 47.5537 11.4023H45.3866V10.4696H48.4838L48.4963 10.5544C48.5187 10.7115 48.5412 10.8736 48.5412 11.0232C48.5412 11.8836 48.2818 12.5793 47.7681 13.0931C47.1846 13.7015 46.4215 14.0108 45.4988 14.0108ZM81.3118 13.8786H80.3567L77.4315 9.1978L77.4564 10.0407V13.8761H76.5013V7.6791H77.5911L77.621 7.72648L80.3716 12.1355L80.3467 11.2951V7.6791H81.3118V13.8786ZM65.2569 13.8786H64.2893V8.61177H62.611V7.6791H66.9327V8.61177H65.2544V13.8786H65.2569ZM61.823 13.8786H60.8579V7.6791H61.823V13.8786ZM56.3991 13.8786H55.434V8.61177H53.7557V7.6791H58.0774V8.61177H56.3991V13.8786ZM53.1447 13.8686H49.4439V7.6791H53.1447V8.61177H50.4115V10.3125H52.8779V11.2352H50.4115V12.936H53.1447V13.8686ZM70.8704 12.4297C71.3018 12.8611 71.8255 13.0781 72.434 13.0781C73.0599 13.0781 73.5711 12.8661 73.9976 12.4297C74.4215 12.0058 74.636 11.4497 74.636 10.7788C74.636 10.108 74.4215 9.54942 74 9.12797C73.5686 8.69655 73.0424 8.4796 72.4365 8.4796C71.8105 8.4796 71.2993 8.69157 70.8754 9.12797C70.4514 9.55191 70.237 10.108 70.237 10.7788C70.237 11.4497 70.4489 12.0083 70.8704 12.4297Z" fill="white"></path><path fill-rule="evenodd" clip-rule="evenodd" d="M69.1543 22.5347C66.7977 22.5347 64.8875 24.3227 64.8875 26.7891C64.8875 29.233 66.8102 31.0434 69.1543 31.0434C71.5109 31.0434 73.4212 29.2429 73.4212 26.7891C73.4212 24.3227 71.5109 22.5347 69.1543 22.5347ZM69.1543 29.3577C67.865 29.3577 66.7553 28.2903 66.7553 26.7791C66.7553 25.2454 67.8675 24.2006 69.1543 24.2006C70.4436 24.2006 71.5533 25.2454 71.5533 26.7791C71.5558 28.3003 70.4436 29.3577 69.1543 29.3577ZM59.8451 22.5347C57.4885 22.5347 55.5782 24.3227 55.5782 26.7891C55.5782 29.233 57.5009 31.0434 59.8451 31.0434C62.2017 31.0434 64.1119 29.2429 64.1119 26.7891C64.1119 24.3227 62.1992 22.5347 59.8451 22.5347ZM59.8451 29.3577C58.5558 29.3577 57.4461 28.2903 57.4461 26.7791C57.4461 25.2454 58.5583 24.2006 59.8451 24.2006C61.1344 24.2006 62.2441 25.2454 62.2441 26.7791C62.2441 28.3003 61.1344 29.3577 59.8451 29.3577ZM48.7677 23.834V25.6345H53.0894C52.9573 26.6444 52.6231 27.3901 52.1119 27.9013C51.4785 28.5347 50.5009 29.223 48.7777 29.223C46.1218 29.223 44.0445 27.0784 44.0445 24.4225C44.0445 21.7666 46.1218 19.622 48.7777 19.622C50.2116 19.622 51.2565 20.1881 52.0321 20.9113L53.3089 19.6345C52.2316 18.602 50.7977 17.8115 48.7877 17.8115C45.1443 17.8115 42.0869 20.7791 42.0869 24.4125C42.0869 28.0559 45.1418 31.0135 48.7877 31.0135C50.7553 31.0135 52.2316 30.3701 53.3987 29.1582C54.5882 27.9686 54.9648 26.2903 54.9648 24.9362C54.9648 24.5148 54.9323 24.1357 54.865 23.814H48.7652C48.7677 23.8115 48.7677 23.834 48.7677 23.834ZM94.0771 25.2355C93.7205 24.2804 92.6432 22.5247 90.4337 22.5247C88.2442 22.5247 86.4237 24.2479 86.4237 26.7791C86.4237 29.1681 88.2242 31.0335 90.6457 31.0335C92.5908 31.0335 93.723 29.8439 94.1893 29.1457L92.7454 28.1781C92.2666 28.8888 91.6008 29.3552 90.6556 29.3552C89.7005 29.3552 89.0322 28.9212 88.5883 28.0659L94.2766 25.7093C94.2766 25.7118 94.0771 25.2355 94.0771 25.2355ZM88.2766 26.6569C88.2317 25.0135 89.5534 24.1781 90.4985 24.1781C91.2442 24.1781 91.8651 24.5447 92.0771 25.0784L88.2766 26.6569ZM83.6556 30.7791H85.5234V18.2804H83.6556V30.7791ZM80.5883 23.4799H80.5209C80.0995 22.9786 79.299 22.5247 78.2765 22.5247C76.1543 22.5247 74.1992 24.3926 74.1992 26.7916C74.1992 29.1806 76.1444 31.026 78.2765 31.026C79.2865 31.026 80.0995 30.5696 80.5209 30.0584H80.5883V30.6694C80.5883 32.2928 79.7204 33.1681 78.3214 33.1681C77.1768 33.1681 76.4661 32.3452 76.1768 31.6569L74.5533 32.3352C75.0197 33.4574 76.2641 34.8464 78.3189 34.8464C80.5085 34.8464 82.3638 33.5572 82.3638 30.4125V22.7791H80.5982V23.4799C80.6007 23.4799 80.5883 23.4799 80.5883 23.4799ZM78.4436 29.3577C77.1544 29.3577 76.077 28.2803 76.077 26.7916C76.077 25.2903 77.1544 24.203 78.4436 24.203C79.7204 24.203 80.7105 25.3028 80.7105 26.7916C80.7229 28.2803 79.7229 29.3577 78.4436 29.3577ZM102.823 18.2804H98.3564V30.7791H100.224V26.0459H102.825C104.893 26.0459 106.925 24.5472 106.925 22.1681C106.925 19.7891 104.9 18.2804 102.823 18.2804ZM102.878 24.3003H100.222V20.011H102.878C104.277 20.011 105.067 21.1656 105.067 22.1557C105.067 23.1357 104.267 24.3003 102.878 24.3003ZM114.411 22.5123C113.055 22.5123 111.656 23.1133 111.077 24.4225L112.733 25.1108C113.09 24.4225 113.743 24.1881 114.434 24.1881C115.401 24.1881 116.379 24.7666 116.401 25.7991V25.9312C116.067 25.7417 115.334 25.4524 114.456 25.4524C112.668 25.4524 110.855 26.43 110.855 28.2629C110.855 29.9412 112.322 31.0185 113.955 31.0185C115.209 31.0185 115.9 30.4524 116.332 29.7966H116.399V30.7641H118.199V25.9761C118.199 23.7467 116.543 22.5123 114.411 22.5123ZM114.177 29.3577C113.566 29.3577 112.711 29.0584 112.711 28.2903C112.711 27.3227 113.778 26.9562 114.688 26.9562C115.511 26.9562 115.9 27.1332 116.389 27.3776C116.254 28.4998 115.307 29.3477 114.177 29.3577ZM124.768 22.7791L122.623 28.2005H122.556L120.334 22.7791H118.324L121.658 30.3577L119.758 34.5696H121.703L126.833 22.7791H124.768ZM107.955 30.7791H109.823V18.2804H107.955V30.7791Z" fill="white"></path><path fill-rule="evenodd" clip-rule="evenodd" d="M11.4564 8.31245C11.1671 8.62417 11 9.10048 11 9.72392V31.8361C11 32.4596 11.1671 32.9359 11.4663 33.2351L11.5436 33.3025L23.9327 20.9134V20.6366L11.5337 8.24512L11.4564 8.31245Z" fill="url(#paint0_linear_11852_87491)"></path><path fill-rule="evenodd" clip-rule="evenodd" d="M28.0546 25.0556L23.9224 20.9234V20.6341L28.0546 16.502L28.1443 16.5568L33.0321 19.3349C34.4312 20.1229 34.4312 21.4246 33.0321 22.2227L28.1443 25.0007L28.0546 25.0556Z" fill="url(#paint1_linear_11852_87491)"></path><path fill-rule="evenodd" clip-rule="evenodd" d="M28.1448 25.0008L23.9229 20.7788L11.4565 33.2451C11.9129 33.7339 12.6785 33.7888 13.5339 33.3125L28.1448 25.0008Z" fill="url(#paint2_linear_11852_87491)"></path><path fill-rule="evenodd" clip-rule="evenodd" d="M28.1448 16.5568L13.5339 8.2575C12.6785 7.76872 11.9104 7.83606 11.4565 8.32483L23.9229 20.7787L28.1448 16.5568Z" fill="url(#paint3_linear_11852_87491)"></path><path opacity="0.2" fill-rule="evenodd" clip-rule="evenodd" d="M28.0325 25.6768L13.5212 33.9211C12.7107 34.3875 11.9875 34.355 11.5212 33.9311L11.4438 34.0084L11.5212 34.0757C11.9875 34.4972 12.7107 34.5321 13.5212 34.0658L28.1322 25.7665L28.0325 25.6768Z" fill="black"></path><path opacity="0.12" fill-rule="evenodd" clip-rule="evenodd" d="M33.01 22.8437L28.02 25.6766L28.1098 25.7664L32.9976 22.9883C33.6983 22.5893 34.0425 22.0656 34.0425 21.5444C34.0001 22.0232 33.6435 22.4771 33.01 22.8437Z" fill="black"></path><path opacity="0.25" fill-rule="evenodd" clip-rule="evenodd" d="M13.5112 9.16773L33.01 20.245C33.6434 20.6016 34 21.068 34.0548 21.5443C34.0548 21.0231 33.7107 20.4994 33.01 20.1004L13.5112 9.02309C12.1122 8.22259 10.9775 8.89092 10.9775 10.4894V10.6341C10.9775 9.03306 12.1122 8.3772 13.5112 9.16773Z" fill="white"></path><defs><linearGradient id="paint0_linear_11852_87491" x1="22.8214" y1="9.48535" x2="2.97631" y2="14.7731" gradientUnits="userSpaceOnUse"><stop stop-color="#00A0FF"></stop><stop offset="0.00657" stop-color="#00A1FF"></stop><stop offset="0.2601" stop-color="#00BEFF"></stop><stop offset="0.5122" stop-color="#00D2FF"></stop><stop offset="0.7604" stop-color="#00DFFF"></stop><stop offset="1" stop-color="#00E3FF"></stop></linearGradient><linearGradient id="paint1_linear_11852_87491" x1="34.8566" y1="20.7788" x2="10.6596" y2="20.7788" gradientUnits="userSpaceOnUse"><stop stop-color="#FFE000"></stop><stop offset="0.4087" stop-color="#FFBD00"></stop><stop offset="0.7754" stop-color="#FFA500"></stop><stop offset="1" stop-color="#FF9C00"></stop></linearGradient><linearGradient id="paint2_linear_11852_87491" x1="25.8491" y1="23.0762" x2="9.91757" y2="49.8902" gradientUnits="userSpaceOnUse"><stop stop-color="#FF3A44"></stop><stop offset="1" stop-color="#C31162"></stop></linearGradient><linearGradient id="paint3_linear_11852_87491" x1="8.31738" y1="0.957492" x2="15.4251" y2="12.9331" gradientUnits="userSpaceOnUse"><stop stop-color="#32A071"></stop><stop offset="0.0685" stop-color="#2DA771"></stop><stop offset="0.4762" stop-color="#15CF74"></stop><stop offset="0.8009" stop-color="#06E775"></stop><stop offset="1" stop-color="#00F076"></stop></linearGradient></defs></svg>