<svg xmlns="http://www.w3.org/2000/svg" width="40" height="40" viewBox="0 0 40 40" fill="none"><path d="M33.3329 2.0001L33.8796 3.79344C33.971 4.08964 34.1712 4.34024 34.4399 4.49484C34.7086 4.64945 35.0259 4.69658 35.3279 4.62677L37.1462 4.2051C37.4909 4.12735 37.8514 4.16207 38.1749 4.30415C38.4984 4.44624 38.7679 4.68822 38.9438 4.99463C39.1198 5.30103 39.1929 5.65574 39.1526 6.00675C39.1122 6.35777 38.9605 6.68662 38.7196 6.9451L37.4462 8.33344C37.234 8.56165 37.116 8.86176 37.116 9.17344C37.116 9.48511 37.234 9.78522 37.4462 10.0134L38.7179 11.3868C38.9581 11.6454 39.1092 11.974 39.1491 12.3247C39.1891 12.6753 39.1158 13.0295 38.94 13.3355C38.7642 13.6415 38.495 13.8832 38.172 14.0253C37.849 14.1674 37.4889 14.2023 37.1446 14.1251L35.3329 13.6984C35.0309 13.6286 34.7136 13.6758 34.4449 13.8304C34.1762 13.985 33.976 14.2356 33.8846 14.5318L33.3329 16.3334C33.2315 16.6717 33.0237 16.9682 32.7405 17.179C32.4572 17.3898 32.1135 17.5036 31.7604 17.5036C31.4073 17.5036 31.0636 17.3898 30.7803 17.179C30.4971 16.9682 30.2893 16.6717 30.1879 16.3334L29.6412 14.5401C29.5498 14.2439 29.3496 13.9933 29.0809 13.8387C28.8122 13.6841 28.4949 13.637 28.1929 13.7068L26.3746 14.1284C26.0302 14.2057 25.6702 14.1707 25.3471 14.0286C25.0241 13.8866 24.755 13.6448 24.5792 13.3388C24.4033 13.0329 24.3301 12.6786 24.37 12.328C24.41 11.9774 24.5611 11.6487 24.8012 11.3901L26.0729 10.0168C26.2852 9.78856 26.4032 9.48844 26.4032 9.17677C26.4032 8.8651 26.2852 8.56498 26.0729 8.33677L24.8012 6.9651C24.5603 6.70662 24.4086 6.37777 24.3682 6.02675C24.3279 5.67574 24.401 5.32103 24.577 5.01463C24.7529 4.70822 25.0224 4.46624 25.3459 4.32415C25.6694 4.18207 26.0299 4.14735 26.3746 4.2251L28.1929 4.64677C28.4949 4.71658 28.8122 4.66945 29.0809 4.51484C29.3496 4.36024 29.5498 4.10964 29.6412 3.81344L30.1862 2.0001C30.2872 1.66123 30.4949 1.364 30.7783 1.15266C31.0618 0.941314 31.406 0.827148 31.7596 0.827148C32.1132 0.827148 32.4573 0.941314 32.7408 1.15266C33.0243 1.364 33.2319 1.66123 33.3329 2.0001Z" fill="#B3CDFF" stroke="black" stroke-linecap="round" stroke-linejoin="round"></path><path d="M31.7602 11.5637C33.083 11.5637 34.1552 10.4914 34.1552 9.16868C34.1552 7.84596 33.083 6.77368 31.7602 6.77368C30.4375 6.77368 29.3652 7.84596 29.3652 9.16868C29.3652 10.4914 30.4375 11.5637 31.7602 11.5637Z" stroke="black" stroke-linecap="round" stroke-linejoin="round"></path><path d="M11.7184 16.0436C11.9216 16.2708 12.1705 16.4526 12.4488 16.5771C12.7271 16.7015 13.0285 16.7659 13.3334 16.7659C13.6382 16.7659 13.9396 16.7015 14.2179 16.5771C14.4962 16.4526 14.7451 16.2708 14.9484 16.0436L16 14.8869C16.3012 14.5531 16.6983 14.3207 17.1369 14.2217C17.5754 14.1226 18.0339 14.1619 18.4493 14.3339C18.8646 14.506 19.2165 14.8025 19.4566 15.1826C19.6967 15.5627 19.8132 16.0079 19.79 16.4569L19.71 18.0136C19.6947 18.3177 19.7434 18.6216 19.8528 18.9058C19.9622 19.1899 20.13 19.448 20.3453 19.6633C20.5606 19.8786 20.8187 20.0464 21.1028 20.1558C21.387 20.2652 21.6909 20.3139 21.995 20.2986L23.5517 20.2186C24.0007 20.1954 24.4458 20.3119 24.826 20.552C25.2061 20.792 25.5026 21.1439 25.6747 21.5593C25.8467 21.9747 25.8859 22.4331 25.7869 22.8717C25.6879 23.3103 25.4555 23.7074 25.1217 24.0086L23.965 25.0536C23.7378 25.2568 23.556 25.5057 23.4315 25.784C23.3071 26.0623 23.2427 26.3637 23.2427 26.6686C23.2427 26.9734 23.3071 27.2748 23.4315 27.5531C23.556 27.8314 23.7378 28.0803 23.965 28.2836L25.1217 29.3286C25.4555 29.6297 25.6879 30.0269 25.7869 30.4654C25.8859 30.904 25.8467 31.3624 25.6747 31.7778C25.5026 32.1932 25.2061 32.5451 24.826 32.7852C24.4458 33.0252 24.0007 33.1417 23.5517 33.1186L21.995 33.0386C21.6909 33.0233 21.387 33.0719 21.1028 33.1813C20.8187 33.2907 20.5606 33.4585 20.3453 33.6738C20.13 33.8891 19.9622 34.1472 19.8528 34.4314C19.7434 34.7155 19.6947 35.0195 19.71 35.3236L19.79 36.8802C19.8132 37.3292 19.6967 37.7744 19.4566 38.1545C19.2165 38.5347 18.8646 38.8311 18.4493 39.0032C18.0339 39.1753 17.5754 39.2145 17.1369 39.1155C16.6983 39.0165 16.3012 38.7841 16 38.4502L14.955 37.2936C14.7518 37.0663 14.5029 36.8845 14.2246 36.7601C13.9463 36.6356 13.6449 36.5713 13.34 36.5713C13.0352 36.5713 12.7337 36.6356 12.4554 36.7601C12.1772 36.8845 11.9283 37.0663 11.725 37.2936L10.6667 38.4502C10.3655 38.7841 9.9684 39.0165 9.52984 39.1155C9.09127 39.2145 8.63281 39.1753 8.21744 39.0032C7.80207 38.8311 7.45017 38.5347 7.2101 38.1545C6.97002 37.7744 6.85355 37.3292 6.87669 36.8802L6.95669 35.3236C6.97199 35.0195 6.92335 34.7155 6.81393 34.4314C6.70451 34.1472 6.53673 33.8891 6.32142 33.6738C6.10611 33.4585 5.84805 33.2907 5.5639 33.1813C5.27974 33.0719 4.9758 33.0233 4.67169 33.0386L3.11502 33.1186C2.6677 33.139 2.22498 33.0209 1.84721 32.7805C1.46944 32.5401 1.17501 32.189 1.00407 31.7751C0.833128 31.3612 0.793989 30.9047 0.891989 30.4678C0.989989 30.0309 1.22036 29.6348 1.55169 29.3336L2.70836 28.2886C2.93559 28.0853 3.11739 27.8364 3.24185 27.5581C3.36631 27.2798 3.43065 26.9784 3.43065 26.6736C3.43065 26.3687 3.36631 26.0673 3.24185 25.789C3.11739 25.5107 2.93559 25.2618 2.70836 25.0586L1.55169 24.0136C1.21785 23.7124 0.985463 23.3153 0.886449 22.8767C0.787435 22.4381 0.826655 21.9797 0.998722 21.5643C1.17079 21.1489 1.46726 20.797 1.8474 20.557C2.22753 20.3169 2.67269 20.2004 3.12169 20.2236L4.67836 20.3036C4.98247 20.3189 5.28641 20.2702 5.57056 20.1608C5.85472 20.0514 6.11278 19.8836 6.32809 19.6683C6.5434 19.453 6.71118 19.1949 6.8206 18.9108C6.93002 18.6266 6.97865 18.3227 6.96336 18.0186L6.88336 16.4569C6.8619 16.0094 6.97907 15.5661 7.21887 15.1877C7.45867 14.8092 7.80942 14.514 8.22324 14.3422C8.63706 14.1705 9.0938 14.1307 9.5311 14.2281C9.96841 14.3256 10.365 14.5557 10.6667 14.8869L11.7184 16.0436Z" stroke="black" stroke-linecap="round" stroke-linejoin="round"></path><path d="M13.3333 32.5016C16.555 32.5016 19.1667 29.89 19.1667 26.6683C19.1667 23.4466 16.555 20.835 13.3333 20.835C10.1117 20.835 7.5 23.4466 7.5 26.6683C7.5 29.89 10.1117 32.5016 13.3333 32.5016Z" stroke="black" stroke-linecap="round" stroke-linejoin="round"></path></svg>