<svg xmlns="http://www.w3.org/2000/svg" width="40" height="40" viewBox="0 0 40 40" fill="none"><path d="M20 25.8333C21.3807 25.8333 22.5 24.714 22.5 23.3333C22.5 21.9525 21.3807 20.8333 20 20.8333C18.6193 20.8333 17.5 21.9525 17.5 23.3333C17.5 24.714 18.6193 25.8333 20 25.8333Z" fill="#B3CDFF" stroke="black" stroke-linecap="round" stroke-linejoin="round"></path><path d="M21.7671 21.5652L30.0188 13.3169" stroke="black" stroke-linecap="round" stroke-linejoin="round"></path><path d="M4.1665 24.1667H7.49984" stroke="black" stroke-linecap="round" stroke-linejoin="round"></path><path d="M35.8333 24.1667H32.5" stroke="black" stroke-linecap="round" stroke-linejoin="round"></path><path d="M34.6272 17.2751L31.5488 18.5501" stroke="black" stroke-linecap="round" stroke-linejoin="round"></path><path d="M26.0577 8.70483L24.7827 11.7848" stroke="black" stroke-linecap="round" stroke-linejoin="round"></path><path d="M20 7.5V10.8333" stroke="black" stroke-linecap="round" stroke-linejoin="round"></path><path d="M13.9419 8.70483L15.2169 11.7848" stroke="black" stroke-linecap="round" stroke-linejoin="round"></path><path d="M8.80518 12.1367L11.1585 14.4951" stroke="black" stroke-linecap="round" stroke-linejoin="round"></path><path d="M5.37354 17.2751L8.4502 18.5501" stroke="black" stroke-linecap="round" stroke-linejoin="round"></path><path d="M20.0002 4.16675C14.9168 4.16675 10.0417 6.18609 6.44728 9.78053C2.85284 13.375 0.833496 18.2501 0.833496 23.3334V29.1667C0.833496 29.6088 1.00909 30.0327 1.32165 30.3453C1.63421 30.6578 2.05814 30.8334 2.50016 30.8334H37.5002C37.9422 30.8334 38.3661 30.6578 38.6787 30.3453C38.9912 30.0327 39.1668 29.6088 39.1668 29.1667V23.3334C39.1668 18.2501 37.1475 13.375 33.553 9.78053C29.9586 6.18609 25.0835 4.16675 20.0002 4.16675V4.16675Z" stroke="black" stroke-linecap="round" stroke-linejoin="round"></path></svg>